<?xml version="1.0" standalone="no"?>
<!DOCTYPE svg PUBLIC "-//W3C//DTD SVG 20010904//EN"
 "http://www.w3.org/TR/2001/REC-SVG-20010904/DTD/svg10.dtd">
<svg version="1.0" xmlns="http://www.w3.org/2000/svg"
 width="1199.000000pt" height="674.000000pt" viewBox="0 0 1199.000000 674.000000"
 preserveAspectRatio="xMidYMid meet">
<metadata>
Created by potrace 1.16, written by Peter Selinger 2001-2019
</metadata>
<g transform="translate(0.000000,674.000000) scale(0.100000,-0.100000)"
fill="#000000" stroke="none">
<path d="M7105 5774 c-52 -108 -95 -202 -95 -207 0 -7 -3 -7 -9 -1 -5 5 -23
79 -41 164 -39 195 -38 190 -59 190 -13 0 -31 -29 -67 -110 -27 -60 -51 -110
-54 -110 -4 0 -11 15 -18 33 -6 17 -21 48 -33 67 l-21 34 -27 -32 c-24 -29
-31 -32 -101 -35 l-75 -3 88 -2 c87 -2 88 -2 98 26 11 27 11 27 42 -38 18 -36
39 -66 48 -68 11 -2 29 27 65 108 27 60 52 110 55 110 3 0 21 -73 38 -162 40
-202 39 -198 60 -198 13 0 27 18 44 58 61 136 168 354 172 350 2 -2 21 -103
41 -223 34 -206 44 -245 65 -245 4 0 43 56 86 124 43 68 80 123 83 121 3 -2 7
-21 8 -42 5 -83 13 -113 32 -113 10 0 28 14 40 30 23 32 40 39 40 15 0 -20 16
-27 170 -73 74 -23 168 -55 209 -72 41 -16 76 -29 78 -27 6 7 -175 81 -301
122 -100 33 -132 48 -138 64 -10 29 -29 26 -63 -9 -16 -16 -32 -30 -36 -30 -3
0 -9 32 -11 71 -6 76 -18 100 -41 81 -7 -6 -45 -61 -83 -122 -66 -105 -83
-125 -85 -97 0 6 -17 109 -37 227 -31 179 -40 215 -54 218 -14 3 -38 -38 -113
-194z"/>
<path d="M6228 5820 c-25 -26 -29 -36 -24 -63 3 -18 15 -39 26 -48 19 -16 19
-19 -14 -190 -19 -96 -42 -216 -51 -267 -15 -75 -23 -97 -42 -110 -81 -57
-138 -105 -215 -181 -68 -66 -88 -81 -88 -65 0 43 -41 65 -141 74 -128 13
-332 12 -365 0 -15 -6 -85 -53 -155 -106 -71 -52 -135 -97 -143 -100 -8 -3
-32 6 -54 21 -80 53 -205 71 -290 41 -50 -18 -138 -81 -177 -128 -46 -54 -84
-146 -96 -232 -6 -44 -9 -90 -6 -103 4 -20 0 -23 -27 -23 -49 0 -104 -18 -201
-67 -295 -147 -500 -357 -580 -594 -129 -378 47 -790 409 -960 50 -23 65 -35
62 -48 -3 -9 -8 -34 -12 -56 -4 -22 -10 -44 -13 -50 -4 -5 -16 -37 -27 -70
-10 -33 -25 -64 -31 -68 -7 -4 -13 -15 -13 -22 0 -8 -3 -15 -6 -15 -3 0 -114
29 -247 64 -317 84 -369 97 -373 93 -4 -3 78 -28 456 -139 74 -22 137 -42 139
-44 7 -6 -30 -67 -46 -77 -7 -4 -13 -12 -13 -17 0 -6 -17 -27 -37 -48 -21 -21
-50 -52 -64 -68 -32 -35 -90 -82 -121 -99 -19 -9 -33 -8 -78 7 -79 27 -224 58
-302 64 -79 7 -202 -11 -219 -32 -6 -8 -22 -14 -35 -14 -30 0 -105 -47 -138
-87 -32 -38 -35 -92 -6 -118 11 -10 22 -25 25 -34 5 -18 70 -51 98 -51 9 0 19
-5 23 -11 3 -6 17 -8 31 -5 13 4 29 3 36 -1 7 -4 35 -8 63 -9 28 -1 55 -4 61
-7 5 -3 15 -2 23 3 8 5 21 5 31 0 11 -6 23 -5 35 4 13 10 24 11 37 4 13 -7 23
-6 30 1 6 6 21 11 33 11 13 0 26 5 29 10 3 5 14 10 24 10 10 0 24 6 31 14 6 8
17 13 24 10 7 -3 19 2 26 11 7 8 18 15 25 15 6 0 26 7 44 16 26 13 35 13 47 3
13 -10 -89 -54 -628 -269 -354 -140 -678 -269 -721 -285 -44 -17 -81 -36 -84
-42 -3 -7 7 -45 22 -84 33 -85 0 -68 375 -195 151 -51 590 -199 975 -330 385
-130 712 -239 727 -241 23 -4 74 35 384 298 197 167 375 318 395 334 60 49
363 306 382 325 19 17 49 133 41 154 -2 6 -66 30 -142 53 -75 22 -324 98 -552
168 -228 70 -474 144 -546 166 l-132 40 -117 -56 c-65 -30 -119 -55 -121 -55
-2 0 -1 7 3 16 8 22 -35 63 -81 75 -23 6 -47 13 -53 15 -14 4 69 94 86 94 6 0
11 4 11 9 0 5 20 30 45 54 25 25 45 48 45 51 0 5 9 16 55 67 8 9 15 23 15 32
0 10 5 17 10 17 6 0 15 11 19 24 l9 23 369 -102 c202 -57 467 -131 588 -165
121 -33 223 -67 227 -73 43 -75 210 -295 233 -308 17 -10 318 -92 669 -184
l640 -166 25 19 c37 27 37 51 1 122 -55 108 -63 108 250 20 284 -81 820 -230
1255 -352 352 -98 887 -239 891 -235 2 2 -137 46 -309 97 -171 51 -313 94
-315 95 -2 2 8 25 23 52 42 81 54 166 56 391 1 235 -14 209 134 236 175 33
352 104 488 196 24 16 72 59 106 95 201 216 203 513 4 773 -70 91 -153 167
-266 243 -85 56 -297 168 -385 202 l-44 16 7 363 8 364 -24 27 c-20 22 -56 37
-199 78 -96 28 -193 57 -215 63 -34 10 -40 17 -46 46 -4 19 -15 73 -24 120 -9
47 -30 118 -45 159 l-29 73 44 347 c36 290 46 348 61 356 59 34 72 88 29 130
-33 34 -78 33 -111 -2 -32 -34 -27 -77 12 -111 l26 -23 -37 -312 c-21 -172
-42 -316 -46 -321 -4 -5 -19 14 -33 42 -62 122 -231 309 -366 404 -265 188
-538 267 -881 255 -229 -7 -391 -47 -580 -143 -39 -19 -73 -33 -76 -31 -2 3
16 114 41 247 25 133 46 246 46 251 0 5 9 9 20 9 29 0 70 44 70 74 0 38 -10
55 -41 71 -41 22 -57 19 -91 -15z m882 -505 c209 -31 436 -124 600 -246 241
-177 412 -434 476 -714 13 -53 19 -120 19 -200 0 -116 -1 -122 -34 -189 -91
-187 -345 -351 -674 -436 -360 -93 -727 -102 -1100 -25 -376 77 -677 255 -777
459 -29 58 -35 82 -38 155 -5 100 16 238 54 350 147 440 540 761 1034 846 103
18 325 18 440 0z m-1456 -400 c-19 -15 -40 -22 -62 -20 -18 1 -35 -2 -38 -7
-3 -5 -11 -7 -18 -5 -6 3 -12 -4 -12 -14 0 -17 2 -17 18 -2 10 9 30 18 44 19
21 2 24 0 13 -12 -7 -8 -18 -13 -26 -10 -8 3 -12 2 -9 -3 3 -4 -27 -31 -67
-58 -90 -64 -117 -89 -117 -111 0 -11 -3 -13 -8 -6 -11 18 -91 36 -126 30 -17
-4 -51 -22 -75 -41 l-45 -36 -37 43 c-21 24 -37 48 -35 53 2 10 81 70 160 121
31 21 40 23 48 12 7 -9 8 -7 4 8 -5 15 2 25 31 42 36 21 49 22 212 21 l173 -2
-28 -22z m-787 -120 c63 -19 142 -77 199 -146 46 -57 57 -90 41 -126 -10 -23
-12 -22 -30 27 -25 69 -122 167 -202 206 -43 21 -79 30 -128 32 -44 3 -64 8
-56 13 22 14 121 10 176 -6z m-5 -49 c67 -32 137 -93 177 -153 35 -53 39 -92
12 -117 -24 -22 -47 -12 -87 41 -39 52 -61 70 -119 98 -150 73 -294 -24 -312
-210 -5 -58 -9 -67 -49 -106 -42 -41 -43 -42 -48 -18 -29 142 1 291 80 395 32
41 85 78 135 93 53 16 152 5 211 -23z m-58 -144 c3 -5 -39 -45 -92 -91 -65
-55 -98 -77 -100 -67 -7 31 21 101 53 133 29 29 40 33 83 33 28 0 53 -4 56 -8z
m96 -68 c45 -41 51 -58 18 -49 -15 4 -18 3 -10 -3 9 -6 -28 -45 -129 -136
-145 -132 -166 -160 -144 -186 7 -8 11 -23 10 -33 -2 -9 1 -15 6 -11 5 3 7 10
4 15 -4 5 4 9 16 9 l22 0 -23 -25 c-12 -13 -27 -22 -32 -19 -5 3 -7 1 -6 -5 4
-12 -133 -164 -140 -156 -3 3 5 16 18 30 13 14 19 25 14 25 -14 -1 -46 -49
-39 -60 4 -6 -5 -24 -19 -41 -14 -17 -29 -41 -32 -54 l-6 -23 -59 24 c-49 20
-166 79 -177 89 -8 8 42 64 52 58 6 -3 8 -3 4 2 -10 10 11 37 23 29 5 -3 7 1
4 8 -6 17 63 90 77 82 6 -4 8 -3 5 2 -9 15 59 88 74 79 8 -6 10 -4 4 5 -12 20
60 78 95 76 16 -1 26 2 23 7 -3 5 -14 6 -26 3 -14 -3 -7 8 24 39 47 47 62 56
52 28 -6 -15 -5 -16 9 -3 9 8 12 17 7 18 -5 2 -9 8 -9 14 0 6 7 7 16 4 8 -3
13 -2 10 3 -8 12 29 43 39 34 4 -5 5 -3 2 3 -7 13 153 154 175 154 4 0 26 -16
48 -36z m247 -216 c65 -71 17 -314 -81 -411 -40 -41 -104 -77 -135 -77 -28 0
-64 107 -40 120 129 73 169 134 178 277 5 67 10 97 21 103 23 15 35 12 57 -12z
m-770 -14 c14 -4 24 -17 28 -35 6 -26 0 -37 -57 -97 -34 -37 -92 -100 -127
-141 -59 -69 -63 -77 -58 -113 3 -21 3 -38 1 -38 -3 0 -18 21 -34 47 -17 26
-30 43 -30 37 0 -13 27 -52 61 -89 15 -16 35 -50 45 -74 l17 -44 -44 -38 c-24
-21 -52 -39 -62 -39 -60 -1 -180 104 -234 205 -18 33 -33 56 -33 50 0 -5 14
-35 32 -65 40 -71 131 -160 188 -184 25 -11 46 -21 48 -22 2 -1 -12 -22 -31
-47 -19 -25 -37 -52 -39 -59 -4 -10 -10 -9 -29 3 -28 19 -128 53 -135 47 -2
-3 22 -13 54 -22 32 -10 68 -25 80 -35 19 -14 21 -20 12 -51 -5 -19 -10 -48
-10 -63 0 -27 -1 -28 -22 -13 -12 9 -29 16 -38 16 -8 0 1 -8 20 -18 27 -14 37
-27 50 -67 20 -66 54 -127 78 -142 14 -8 18 -21 16 -50 -1 -21 -3 -38 -4 -38
-1 0 -4 -31 -6 -70 -7 -122 -10 -150 -18 -163 -4 -7 -5 -21 -1 -31 3 -11 1
-22 -4 -26 -6 -3 -11 -17 -11 -30 0 -14 0 -36 0 -50 0 -19 -5 -25 -23 -25 -34
0 -186 90 -204 121 -9 15 -22 25 -28 23 -6 -3 -32 19 -57 48 -107 127 -164
242 -155 316 4 36 3 40 -8 25 -12 -15 -14 -12 -22 32 -12 71 -9 220 6 288 l12
57 57 2 57 2 -52 3 c-31 2 -53 9 -53 15 0 54 189 338 225 338 8 0 15 6 15 13
0 19 123 116 224 177 35 21 39 22 33 6 -4 -11 5 -5 22 13 28 30 87 61 166 87
47 15 53 16 82 8z m1069 -5 c50 -13 53 -18 24 -44 -28 -26 -74 -109 -95 -173
-17 -53 -23 -161 -12 -217 6 -30 6 -30 -141 -102 -198 -97 -369 -213 -612
-413 l-35 -28 -92 21 c-90 20 -93 20 -113 2 -28 -25 -25 -55 10 -104 17 -23
28 -46 25 -51 -8 -13 -73 -30 -112 -30 -30 0 -32 2 -30 33 2 17 5 37 9 42 3 6
9 29 13 52 4 24 11 45 16 49 5 3 9 14 9 24 0 42 73 149 110 162 8 2 48 -10 88
-29 97 -44 115 -43 166 10 82 86 217 243 229 267 8 15 24 27 44 31 72 14 195
110 239 186 30 50 64 169 64 223 0 30 6 41 42 68 46 35 79 40 154 21z m109
-137 c0 -136 0 -138 34 -206 61 -124 201 -251 371 -336 524 -263 1350 -262
1873 1 165 84 308 214 367 333 26 52 34 84 38 141 2 41 8 75 12 75 28 0 404
-121 420 -135 26 -23 26 -67 0 -90 -21 -19 -315 -237 -492 -366 -255 -184
-481 -276 -824 -334 -776 -132 -1628 82 -1888 473 -53 81 -76 153 -76 242 0
86 20 152 69 226 32 49 86 114 94 114 1 0 2 -62 2 -138z m3129 -529 c-4 -170
-8 -310 -10 -312 -1 -2 -53 14 -113 35 -110 39 -111 39 -111 71 0 52 -17 83
-54 98 -19 8 -43 12 -53 8 -33 -12 -243 -174 -268 -207 -47 -61 -55 -105 -55
-287 0 -179 6 -209 47 -228 42 -19 70 -12 139 35 l67 46 113 -41 c61 -23 147
-56 190 -74 l79 -34 1 -222 2 -222 -27 -11 c-15 -6 -135 -13 -281 -15 -372 -7
-674 26 -1028 113 -133 32 -152 35 -201 25 -29 -6 -68 -20 -86 -31 l-32 -20
-13 43 c-20 68 -49 117 -103 174 -148 156 -406 236 -612 189 -33 -8 -69 -17
-80 -21 -18 -5 -25 4 -55 66 -42 87 -82 144 -112 160 -12 6 -78 25 -147 41
-69 16 -133 31 -142 33 -9 3 -26 28 -40 56 -27 59 -57 86 -105 95 -28 5 -35
12 -44 43 -15 58 -120 491 -120 498 0 3 19 -21 43 -53 168 -229 559 -406 1032
-469 538 -71 1132 21 1502 232 71 41 620 437 663 479 8 8 16 14 18 14 1 0 0
-138 -4 -307z m-3296 134 c38 -138 93 -389 89 -401 -4 -10 -19 -16 -39 -16
-19 0 -28 -4 -21 -8 8 -5 -4 -16 -33 -31 l-45 -24 -27 25 c-49 47 -94 68 -145
68 -41 0 -53 -5 -79 -31 -27 -27 -35 -30 -69 -24 -22 4 -41 11 -45 16 -3 5 -9
7 -14 4 -4 -3 -49 4 -100 16 -88 20 -92 20 -111 3 -16 -14 -19 -26 -14 -53 5
-29 4 -33 -10 -27 -9 3 -28 9 -41 12 -13 3 -24 11 -24 18 0 8 -3 8 -8 -1 -4
-7 -13 -8 -20 -4 -9 6 -7 12 8 26 15 14 20 15 20 4 1 -8 7 -2 15 13 17 30 247
208 270 208 8 0 18 6 22 14 16 28 371 226 405 226 4 0 11 -15 16 -33z m-1115
-97 c32 -59 34 -86 7 -93 -11 -3 -24 -16 -29 -30 -5 -14 -15 -28 -20 -32 -6
-3 -11 -14 -11 -24 0 -9 -5 -22 -12 -29 -15 -15 -38 -83 -32 -94 3 -4 -2 -15
-11 -24 -9 -9 -14 -23 -11 -30 3 -7 1 -16 -4 -19 -6 -4 -10 -18 -10 -31 0 -38
-19 -25 -54 37 -41 72 -44 168 -6 244 23 49 136 175 155 175 6 0 22 -23 38
-50z m4062 -272 c62 -19 66 -22 44 -30 -28 -10 -86 -63 -101 -93 -6 -11 8 1
31 27 69 77 91 79 246 23 192 -70 272 -107 249 -116 -13 -5 -7 -8 21 -8 43 -1
170 -63 290 -142 52 -35 62 -45 48 -51 -14 -5 -11 -7 11 -7 21 -1 47 -19 103
-73 69 -67 143 -156 143 -172 0 -4 -9 -2 -21 4 -11 7 -22 10 -24 8 -3 -2 11
-12 29 -22 42 -22 80 -90 101 -177 41 -176 -4 -344 -128 -475 -75 -79 -129
-120 -222 -168 -69 -35 -205 -90 -205 -82 0 2 9 23 20 47 11 24 19 58 19 74
-1 25 -2 23 -9 -12 -10 -46 -32 -94 -52 -110 -19 -15 -128 -41 -248 -58 -99
-14 -200 -20 -200 -11 0 2 7 20 15 39 8 20 15 49 14 64 -1 20 -4 15 -10 -17
-5 -25 -17 -56 -27 -70 -24 -31 -63 -34 -289 -25 -141 6 -163 9 -164 24 0 10
-2 11 -6 4 -3 -8 -22 -13 -46 -13 -73 0 -302 31 -316 43 -8 7 -22 26 -33 42
-22 37 -24 25 -2 -16 l15 -30 -48 7 c-142 20 -285 53 -302 69 -33 29 -53 85
-61 164 -7 72 -7 73 -9 21 -1 -64 14 -124 40 -162 11 -14 19 -28 19 -31 0 -12
-190 47 -229 71 -86 53 -128 181 -91 274 36 88 121 150 210 151 52 1 190 -33
190 -46 0 -5 7 -7 15 -4 8 4 56 -3 107 -13 51 -11 119 -24 151 -31 l59 -11
-25 -26 c-25 -27 -47 -64 -47 -78 0 -4 13 13 29 38 16 26 38 51 48 56 11 5 71
3 158 -6 179 -18 185 -19 186 -40 1 -16 2 -16 6 1 4 15 22 17 193 17 l189 0
27 -32 c21 -27 24 -28 10 -6 -9 15 -16 29 -16 31 0 2 37 7 83 11 45 3 128 14
185 23 l103 17 42 -22 c23 -12 55 -42 72 -66 17 -24 32 -43 34 -41 9 10 -65
95 -101 115 l-41 23 62 23 c33 13 81 37 106 54 24 17 54 34 67 40 13 5 17 9
10 9 -9 1 -11 13 -7 44 3 27 2 35 -3 23 -8 -18 -9 -18 -15 -2 -12 30 -8 95 8
134 9 20 35 57 58 82 23 24 31 36 17 25 -58 -47 -99 -117 -100 -170 l0 -29
-51 49 c-28 28 -60 68 -71 90 -15 32 -18 34 -13 12 l6 -29 -43 27 c-24 14 -79
45 -124 67 -109 55 -129 85 -129 189 0 53 -3 71 -8 56 -13 -33 -1 -134 18
-164 21 -31 34 -34 -155 37 -164 62 -160 59 -187 100 -13 18 -23 29 -23 24 0
-5 7 -20 16 -32 8 -12 12 -22 9 -22 -4 0 -54 14 -111 32 l-104 31 0 97 c0 107
17 179 53 223 30 36 127 106 148 107 9 0 47 -10 84 -22z m-3361 -94 c60 -14
109 -24 110 -22 24 55 33 63 77 66 37 2 52 -2 88 -28 23 -17 51 -46 61 -64 19
-31 26 -33 147 -59 160 -35 184 -46 212 -104 12 -25 20 -47 18 -49 -2 -3 -63
10 -136 28 -106 26 -131 35 -131 49 0 10 -5 21 -10 24 -16 10 -391 95 -417 95
-13 0 -26 -6 -29 -14 -4 -11 -14 -12 -47 -4 -117 28 -116 28 -136 67 -14 26
-17 41 -10 48 11 11 10 11 203 -33z m-386 -18 c103 -25 417 -99 697 -166 281
-66 558 -132 617 -146 78 -19 114 -32 130 -49 21 -21 359 -672 374 -719 8 -24
-8 -19 -85 27 -66 39 -117 103 -137 172 -20 72 -42 90 -111 90 -73 0 -95 -26
-97 -112 -4 -195 241 -404 514 -438 l55 -7 137 -268 c84 -162 136 -275 132
-284 -3 -9 -15 -16 -27 -16 -23 0 -333 80 -1167 299 -138 36 -135 34 -290 261
-115 169 -891 1286 -929 1337 -20 27 -24 63 -6 63 3 0 90 -20 193 -44z m-153
-143 c-4 -10 -9 -27 -11 -38 -2 -11 1 -8 7 8 6 15 14 27 17 27 4 -1 58 -76
121 -167 l114 -167 -26 -22 c-55 -47 -223 -96 -330 -95 -120 0 -115 -3 -112
61 2 30 8 84 15 119 6 35 13 103 15 152 2 49 7 93 10 99 3 5 25 10 48 11 23 0
58 7 77 14 50 19 64 19 55 -2z m308 -420 c19 -27 89 -129 156 -228 67 -99 165
-241 216 -315 52 -74 93 -135 91 -137 -1 -1 -123 31 -272 73 -148 41 -343 95
-433 120 -246 68 -404 114 -410 119 -2 3 3 13 12 23 10 10 17 28 17 39 0 12 5
23 12 25 6 2 12 13 13 24 1 10 6 27 10 37 4 9 5 24 2 32 -4 8 -2 17 3 20 6 4
10 17 10 30 0 13 5 27 11 31 6 3 9 15 6 25 -5 17 0 18 67 12 117 -9 303 33
401 91 22 13 43 25 47 25 3 1 22 -20 41 -46z m1792 12 c161 -34 339 -155 398
-272 41 -80 44 -123 13 -169 -14 -21 -31 -65 -37 -97 -11 -51 -17 -63 -52 -88
-78 -56 -139 -73 -272 -73 -103 0 -131 4 -200 27 -103 34 -168 73 -244 143
-59 54 -111 139 -125 206 -8 33 15 58 53 58 33 0 81 -34 81 -58 0 -35 49 -119
93 -159 176 -162 476 -162 567 -1 119 212 -225 471 -502 377 -66 -22 -63 -23
-93 33 -25 45 -19 54 48 71 79 20 183 21 272 2z m2295 -90 c80 -52 128 -97
165 -153 l28 -43 -24 -25 c-13 -14 -50 -38 -84 -54 -56 -28 -184 -70 -212 -70
-10 0 -13 47 -13 203 0 112 3 206 6 210 8 8 51 -14 134 -68z m-2253 -36 c120
-37 226 -141 240 -236 l5 -38 -27 52 c-46 91 -159 168 -284 194 -53 11 -164 8
-223 -7 -21 -5 -28 -3 -28 9 0 30 114 58 200 50 30 -3 83 -14 117 -24z m-54
-64 c77 -20 130 -48 184 -98 51 -47 83 -103 83 -146 0 -63 -87 -125 -190 -136
l-55 -6 -75 96 c-97 124 -191 265 -184 276 17 29 151 37 237 14z m-399 -340
c122 -122 280 -185 460 -185 123 0 237 34 299 88 9 8 20 12 25 8 4 -5 -11 -23
-32 -42 -186 -161 -538 -124 -754 79 -52 50 -104 140 -116 202 -4 21 2 14 21
-25 16 -32 56 -84 97 -125z m804 -169 c19 -42 81 -103 125 -124 124 -58 636
-146 1007 -173 165 -12 526 -8 564 7 18 7 19 0 13 -222 -4 -197 -8 -238 -26
-296 -12 -37 -32 -80 -45 -95 l-23 -27 -104 28 c-57 15 -140 38 -184 51 -44
13 -147 42 -230 65 -82 23 -220 61 -305 85 -85 24 -328 92 -540 151 -212 58
-390 111 -396 115 -7 5 -14 22 -17 37 -3 15 -9 35 -12 44 -6 16 -2 17 36 12
56 -7 79 9 86 62 4 29 -1 55 -15 86 l-19 45 -76 12 c-51 8 -77 17 -81 28 -8
20 -14 16 67 43 37 12 87 37 110 55 23 18 45 34 48 34 3 1 11 -10 17 -23z
m-3572 -62 c44 -9 83 -19 87 -23 4 -4 -12 -14 -35 -21 -24 -8 -49 -18 -56 -23
-28 -22 -288 -12 -330 12 -12 7 -8 13 19 27 83 45 185 54 315 28z m989 -114
c94 -29 218 -67 277 -86 59 -19 115 -34 123 -34 10 0 13 -5 9 -12 -4 -6 -3 -8
3 -5 6 4 78 -14 159 -39 82 -25 169 -52 194 -59 25 -7 106 -32 180 -55 74 -23
141 -42 148 -43 6 0 12 -3 12 -6 -1 -3 -74 -49 -163 -102 -89 -53 -204 -122
-255 -153 -51 -31 -98 -53 -104 -50 -7 4 -8 2 -4 -4 9 -15 -46 -42 -71 -36
-12 3 -24 0 -28 -6 -5 -9 -1 -10 16 -5 l24 6 -25 -20 c-14 -11 -31 -19 -38
-16 -7 3 -11 1 -8 -4 7 -11 -22 -23 -36 -14 -6 3 -8 1 -5 -5 9 -13 -90 -75
-106 -66 -7 4 -9 3 -4 -1 8 -9 -81 -70 -90 -62 -2 3 13 17 34 31 20 14 34 26
29 26 -4 0 -21 -9 -36 -20 -16 -11 -31 -16 -34 -11 -4 5 -30 17 -59 27 -28 9
-56 19 -62 23 -5 3 -14 6 -20 6 -5 1 -31 7 -57 15 -36 11 -45 17 -37 27 6 7
24 10 42 8 29 -4 29 -4 7 4 -14 5 -19 9 -12 10 6 1 12 6 12 12 0 6 -16 -1 -35
-15 -25 -19 -41 -25 -60 -20 -14 3 -22 10 -19 15 3 5 -1 7 -8 4 -18 -6 -280
79 -271 89 4 4 1 5 -7 2 -16 -6 -163 37 -156 45 3 3 -3 5 -12 5 -36 1 -231 67
-225 77 3 6 1 7 -5 3 -7 -4 -36 1 -66 10 -43 13 -54 21 -51 35 2 10 0 21 -5
24 -5 3 -7 -4 -5 -15 5 -24 -11 -26 -57 -6 -18 8 -75 27 -127 42 l-93 28 53
24 c30 13 59 24 64 25 6 1 12 5 15 9 3 4 35 20 72 36 50 23 69 27 78 19 9 -9
11 -9 8 2 -4 17 120 82 142 75 8 -3 11 -2 8 2 -12 11 113 65 136 59 14 -4 17
-3 8 3 -9 6 17 22 85 53 54 24 147 67 208 96 60 29 117 51 125 48 8 -2 92 -27
185 -55z m-504 -40 c20 -8 17 -9 -19 -4 -23 3 -54 7 -68 9 -15 1 -82 -22 -157
-54 -118 -50 -132 -59 -144 -89 -8 -19 -10 -31 -5 -28 4 2 14 1 21 -3 13 -9
10 -10 -169 -94 -177 -82 -176 -81 -220 -64 -22 8 -38 12 -36 8 3 -4 -15 -17
-39 -29 -36 -17 -49 -19 -80 -11 -21 6 -54 8 -74 4 -47 -9 -369 -131 -401
-153 -14 -9 -34 -16 -45 -15 -17 1 -17 1 -2 -3 10 -3 16 -11 14 -17 -7 -20 13
-48 46 -62 57 -25 14 -16 -88 18 l-99 34 79 30 c231 90 842 332 989 392 54 22
102 38 107 35 5 -3 9 -1 9 4 0 4 33 21 73 36 39 15 103 40 141 55 71 29 101
29 167 1z m-621 -403 c69 -22 130 -41 135 -43 6 -1 93 -29 195 -62 102 -33
224 -73 272 -88 49 -16 84 -32 81 -38 -4 -5 1 -7 10 -3 13 5 170 -41 237 -69
8 -4 22 -8 30 -9 39 -5 190 -58 190 -67 0 -5 5 -6 10 -3 6 4 26 1 45 -5 25 -8
32 -15 28 -28 -5 -14 -3 -15 8 -4 7 6 20 12 29 12 10 0 8 -6 -10 -20 -14 -11
-31 -18 -38 -15 -8 3 -10 0 -6 -7 5 -8 2 -9 -10 -5 -10 4 -15 3 -11 -3 3 -5
-44 -38 -105 -74 l-110 -65 -107 37 c-60 20 -110 38 -113 41 -3 4 -12 7 -20 7
-16 2 -88 25 -570 183 -179 59 -400 132 -492 162 -92 30 -168 56 -168 60 0 10
92 49 102 43 7 -5 8 -2 3 6 -6 10 -4 12 8 7 9 -3 17 -2 19 3 6 18 193 100 213
93 11 -3 76 -24 145 -46z"/>
<path d="M6025 4508 c-154 -57 -274 -275 -221 -402 44 -106 175 -100 284 12
118 121 152 287 74 364 -33 34 -89 44 -137 26z m104 -23 c114 -58 36 -314
-122 -405 -83 -47 -152 -37 -183 28 -49 103 47 301 178 366 59 30 87 32 127
11z"/>
<path d="M7010 4329 c-99 -40 -153 -184 -116 -311 46 -158 179 -250 307 -212
88 26 142 113 142 229 1 161 -123 306 -259 304 -27 0 -60 -5 -74 -10z m159
-29 c90 -45 155 -160 154 -270 -3 -253 -290 -290 -396 -52 -40 91 -30 217 22
279 52 63 146 81 220 43z"/>
<path d="M4041 1833 c-76 -37 -95 -43 -103 -32 -8 11 -9 11 -5 -2 4 -13 -19
-28 -101 -65 -58 -27 -113 -47 -122 -46 -8 2 -11 0 -7 -4 10 -11 -92 -56 -106
-47 -5 3 -7 1 -4 -4 4 -6 -7 -16 -24 -23 -16 -7 -28 -18 -26 -24 2 -6 44 -23
93 -38 49 -16 96 -31 104 -34 8 -4 21 -8 29 -10 49 -10 159 -49 156 -55 -3 -4
5 -5 17 -1 13 3 19 1 15 -5 -4 -6 4 -8 20 -5 19 4 24 2 18 -8 -5 -8 -4 -11 3
-6 6 3 68 -12 139 -35 176 -56 184 -59 179 -50 -7 11 93 63 106 55 7 -4 8 -3
4 4 -4 7 7 18 31 29 21 9 46 24 56 32 16 13 19 13 28 1 9 -13 10 -13 7 -1 -3
9 16 25 49 43 61 32 63 33 63 14 0 -8 -8 -17 -17 -19 -10 -2 -6 -3 9 -1 28 3
34 -12 13 -29 -6 -5 -3 -7 6 -4 20 6 101 -12 95 -22 -2 -3 12 -6 31 -7 19 0
38 -6 42 -13 5 -7 11 -12 15 -12 3 1 7 1 9 0 1 0 13 -2 27 -5 57 -10 126 -38
141 -57 9 -11 22 -17 30 -14 10 4 9 6 -3 6 -10 1 -18 5 -18 10 0 5 8 11 18 14
13 3 9 8 -16 19 -18 8 -29 18 -25 23 5 4 2 5 -4 1 -15 -8 -94 14 -88 25 3 4
-3 5 -12 3 -23 -4 -236 68 -233 80 1 5 -4 12 -10 16 -8 5 22 26 79 55 99 51
105 66 35 80 -34 6 -35 7 -18 21 18 14 18 14 -3 5 -23 -12 -86 -4 -78 10 3 4
0 11 -6 15 -8 4 -9 3 -5 -4 9 -14 -5 -15 -36 -3 -26 11 -103 34 -166 51 -23 6
-40 15 -38 19 3 4 -6 6 -21 3 -17 -3 -24 -1 -19 6 4 6 -2 8 -16 5 -19 -4 -20
-3 -8 6 13 9 13 11 -2 11 -9 0 -18 3 -21 8 -2 4 -2 1 0 -7 2 -7 -2 -11 -9 -9
-7 3 -49 16 -93 28 -92 27 -94 28 -75 40 9 6 10 10 3 10 -6 0 -15 -4 -18 -10
-3 -5 -11 -10 -16 -10 -6 0 -7 5 -4 10 8 13 15 16 -94 -37z m279 -53 c0 -3
-24 -18 -53 -32 l-54 -26 -101 31 c-56 18 -102 35 -102 38 0 4 25 17 57 31
l56 24 99 -30 c54 -16 98 -33 98 -36z m-239 -31 c55 -18 99 -35 99 -38 0 -4
-24 -18 -52 -32 l-53 -25 -97 30 c-53 17 -100 34 -104 38 -5 6 83 54 105 57 2
1 48 -13 102 -30z m378 -5 c47 -15 89 -30 94 -34 4 -3 -19 -18 -50 -33 l-58
-27 -105 33 -105 34 50 26 c63 33 68 33 174 1z m-504 -68 l100 -33 -52 -26
c-29 -15 -60 -27 -70 -26 -10 0 -63 15 -118 33 l-100 32 55 26 c30 15 62 27
70 27 8 0 60 -15 115 -33z m438 -22 c15 -4 27 -9 27 -13 0 -3 -22 -19 -50 -34
l-49 -28 -106 32 c-58 18 -105 35 -105 39 0 3 24 17 52 31 l53 26 75 -24 c41
-13 87 -26 103 -29z m324 10 l86 -26 -53 -29 c-29 -16 -58 -29 -63 -29 -5 0
-55 14 -110 31 l-100 31 49 29 c55 33 60 33 191 -7z m-904 -54 c53 -17 97 -33
97 -36 0 -3 -25 -17 -56 -31 l-55 -25 -105 33 c-57 18 -104 35 -104 39 0 10
83 49 105 49 12 1 64 -13 118 -29z m374 -6 c49 -14 92 -29 97 -32 5 -3 -16
-18 -47 -34 l-57 -28 -105 32 c-58 18 -105 35 -105 38 0 10 105 59 117 55 7
-2 52 -16 100 -31z m375 -5 c55 -17 97 -33 94 -36 -3 -3 -27 -18 -53 -33 l-46
-27 -99 32 c-54 18 -99 36 -98 41 1 9 77 53 94 54 5 0 54 -14 108 -31z m-522
-60 c52 -17 101 -33 109 -35 9 -3 -9 -17 -42 -35 l-57 -30 -103 32 c-56 17
-106 34 -111 37 -7 4 86 60 104 62 3 0 48 -14 100 -31z m366 -3 c139 -42 135
-38 73 -73 l-53 -30 -81 25 c-44 13 -93 30 -110 36 l-30 13 50 26 c28 14 55
26 61 27 6 0 46 -11 90 -24z m-106 -79 l104 -33 -55 -32 -55 -31 -114 36 -114
35 54 29 c30 15 60 28 65 28 6 0 57 -14 115 -32z"/>
<path d="M4902 1609 c3 -10 93 -41 293 -103 5 -1 0 -8 -12 -15 -23 -12 -77 -5
-68 9 3 5 -5 6 -17 2 -15 -4 -19 -2 -13 7 5 10 2 11 -12 7 -12 -4 -65 9 -131
32 -86 31 -112 36 -116 26 -6 -16 -8 -16 84 -44 41 -13 78 -28 82 -34 4 -6 10
-8 13 -4 6 5 118 -26 167 -47 11 -4 20 0 27 13 9 18 8 19 -12 15 -22 -5 -22
-5 -2 10 14 11 31 14 54 10 24 -4 32 -2 29 7 -2 7 -73 34 -158 61 -192 60
-214 65 -208 48z"/>
<path d="M3308 1516 c-10 -7 -18 -19 -18 -25 0 -7 -5 -9 -12 -5 -7 4 -8 3 -4
-4 4 -6 14 -8 23 -5 11 4 14 3 9 -5 -5 -8 -1 -10 10 -5 12 4 15 3 10 -5 -4 -8
-2 -10 7 -6 8 3 38 -2 66 -12 30 -9 64 -14 82 -10 16 3 28 2 25 -2 -2 -4 5 -8
17 -9 12 0 16 1 9 4 -18 7 -4 23 16 17 14 -5 14 -4 2 4 -10 8 -19 7 -29 -1
-12 -10 -14 -9 -8 5 8 22 -5 30 -86 56 -78 25 -95 26 -119 8z"/>
<path d="M4523 1401 c-9 -14 -9 -18 0 -18 37 1 57 -4 52 -13 -4 -6 -12 -7 -18
-4 -7 4 -9 3 -5 -1 5 -5 20 -10 35 -11 22 -3 25 -1 13 7 -13 10 -13 10 0 7 92
-25 198 -64 194 -70 -3 -4 0 -8 6 -8 6 0 8 -4 5 -10 -3 -6 1 -7 10 -3 13 5 14
7 3 14 -16 10 2 12 26 3 13 -5 14 -9 5 -20 -14 -17 -43 -18 -61 -1 -7 6 -17
12 -23 12 -5 0 -28 4 -49 8 -31 7 -36 11 -25 19 11 7 9 9 -8 5 -13 -3 -26 -1
-29 4 -3 5 -9 7 -13 5 -4 -3 -41 5 -82 18 -121 37 -133 39 -117 22 7 -9 78
-36 158 -61 199 -63 210 -68 204 -77 -3 -4 4 -4 15 0 11 4 20 12 21 17 3 22
24 36 46 31 17 -5 26 0 35 15 8 16 8 20 -1 14 -11 -7 -323 84 -362 106 -23 12
-21 12 -35 -10z"/>
<path d="M4375 1170 c-4 -6 -4 -14 -1 -17 3 -4 6 -1 6 5 0 7 5 12 11 12 5 0 8
-4 5 -8 -2 -4 -1 -14 4 -22 5 -9 5 -20 -2 -28 -17 -20 5 -37 29 -23 16 11 16
11 -4 6 -18 -5 -22 -3 -17 9 3 9 7 16 8 16 25 -3 116 -39 106 -42 -8 -3 -3 -3
12 -1 27 4 46 -11 28 -22 -13 -8 -13 -25 1 -25 5 0 8 4 4 9 -3 5 -1 12 5 16 6
4 8 10 5 15 -10 17 39 19 52 2 8 -9 12 -11 8 -5 -3 7 -1 21 4 32 8 14 7 22 -3
30 -7 6 -15 9 -18 6 -2 -3 -42 7 -87 21 -77 24 -83 25 -107 10 -14 -10 -23
-12 -22 -5 4 16 -18 23 -27 9z"/>
<path d="M3037 1437 c4 -6 0 -8 -11 -4 -9 4 -15 3 -12 -2 6 -9 -48 -33 -58
-25 -3 2 -4 1 -1 -2 5 -7 -132 -76 -152 -77 -10 0 -10 -4 -2 -14 7 -7 71 -32
143 -55 72 -22 140 -46 151 -51 11 -6 27 -12 35 -13 51 -9 548 -180 543 -188
-3 -5 -1 -6 6 -2 11 7 170 -40 181 -53 3 -3 12 -6 20 -7 8 -1 81 -23 162 -50
147 -48 148 -48 178 -31 16 10 34 16 38 13 4 -2 14 0 22 6 12 8 12 9 -2 4 -10
-3 -18 -4 -18 -2 0 7 103 66 107 62 3 -2 -8 -11 -24 -20 -15 -8 -23 -15 -18
-16 19 0 55 31 49 42 -5 8 -1 9 10 5 10 -4 15 -3 11 3 -3 6 1 13 10 16 8 4 20
16 26 27 10 17 9 19 -5 14 -15 -6 -75 10 -86 22 -3 3 -9 6 -15 7 -37 1 -84 18
-78 27 3 5 2 7 -4 4 -5 -4 -50 7 -99 22 -396 127 -571 184 -593 193 -14 6 -34
13 -43 14 -9 2 -81 24 -160 50 -79 25 -151 49 -160 51 -10 3 -18 8 -18 12 0 4
-8 7 -17 8 -10 1 -41 5 -70 10 -35 7 -50 7 -46 0z m677 -221 c347 -113 642
-209 655 -214 23 -8 18 -13 -65 -64 -49 -30 -95 -58 -102 -62 -10 -6 -858 266
-1257 404 -99 34 -108 39 -85 48 14 6 63 28 110 51 47 22 91 41 99 41 8 0 298
-92 645 -204z"/>
</g>
</svg>
